<svg xmlns="http://www.w3.org/2000/svg" viewBox="0 0 500 500"><g id="freepik--Table--inject-181"><path d="M471.17,469.46c0,.14-99,.26-221.16.26s-221.18-.12-221.18-.26,99-.26,221.18-.26S471.17,469.31,471.17,469.46Z" style="fill:#263238"></path></g><g id="freepik--No--inject-181"><path d="M400,293.16l-7.69-3.44,45.79-57.66,7.47,2.07a5.74,5.74,0,0,1,2.86,1.83l7.44,8.76a3,3,0,0,1-.34,4.22l-51.4,43.63A3.9,3.9,0,0,1,400,293.16Z" style="fill:#455a64"></path><path d="M451.93,289.1l-8.32,7a3.37,3.37,0,0,1-3.35.6L434,294.47a3.42,3.42,0,0,1-1.82-1.59l-34.06-64.21,7.68,2.23a5.26,5.26,0,0,1,2.54,1.65l43.95,51.78A3.39,3.39,0,0,1,451.93,289.1Z" style="fill:#455a64"></path><g style="opacity:0.30000000000000004"><path d="M400,293.16l-7.69-3.44,45.79-57.66,7.47,2.07a5.74,5.74,0,0,1,2.86,1.83l7.44,8.76a3,3,0,0,1-.34,4.22l-51.4,43.63A3.9,3.9,0,0,1,400,293.16Z"></path><path d="M451.93,289.1l-8.32,7a3.37,3.37,0,0,1-3.35.6L434,294.47a3.42,3.42,0,0,1-1.82-1.59l-34.06-64.21,7.68,2.23a5.26,5.26,0,0,1,2.54,1.65l43.95,51.78A3.39,3.39,0,0,1,451.93,289.1Z"></path></g><rect x="407.3" y="224.54" width="16.26" height="72.88" rx="2.29" transform="translate(345.57 -224.63) rotate(49.68)" style="fill:#455a64"></rect><path d="M409.59,224.54h12a2,2,0,0,1,2,2v68.64a2.29,2.29,0,0,1-2.29,2.29H409.59a2.29,2.29,0,0,1-2.29-2.29v-68.3a2.29,2.29,0,0,1,2.29-2.29Z" transform="translate(-70.17 330.85) rotate(-40.32)" style="fill:#455a64"></path><path d="M402,264.25a100,100,0,0,1-7.57,6.82,99.52,99.52,0,0,1-7.91,6.43,100.93,100.93,0,0,1,7.57-6.83A100,100,0,0,1,402,264.25Z" style="fill:#fff"></path><path d="M436.49,234.76c.1.11-3.72,3.49-8.51,7.55s-8.75,7.25-8.84,7.14,3.71-3.48,8.51-7.54S436.4,234.65,436.49,234.76Z" style="fill:#fff"></path><path d="M403.71,256c-.11.09-3.06-3.5-6.59-8s-6.3-8.24-6.19-8.33a101.54,101.54,0,0,1,6.6,8A99.86,99.86,0,0,1,403.71,256Z" style="fill:#fff"></path><path d="M430.07,286a90.09,90.09,0,0,1-6.82-7,89.2,89.2,0,0,1-6.43-7.37,96.09,96.09,0,0,1,6.82,7A92.55,92.55,0,0,1,430.07,286Z" style="fill:#fff"></path></g><g id="freepik--Yes--inject-181"><path d="M36.94,282.29l-1.59-5.92,42.87,8.54,37.87-53.25,4.62,8.6a4.47,4.47,0,0,1,0,4.26L87.83,304.71a9.14,9.14,0,0,1-12.6,3.52L42.05,289A11,11,0,0,1,36.94,282.29Z" style="fill:#FF725E"></path><g style="opacity:0.30000000000000004"><path d="M36.94,282.29l-1.59-5.92,42.87,8.54,37.87-53.25,4.62,8.6a4.47,4.47,0,0,1,0,4.26L87.83,304.71a9.14,9.14,0,0,1-12.6,3.52L42.05,289A11,11,0,0,1,36.94,282.29Z"></path></g><path d="M35.47,273.55l6.18-10.94a3.39,3.39,0,0,1,4.45-1.38l24.8,12.15a3.41,3.41,0,0,0,4.5-1.46L100,225.76a3.4,3.4,0,0,1,4.78-1.3l10,6.15a3.4,3.4,0,0,1,1.21,4.52L83.83,293.94a8.24,8.24,0,0,1-11.09,3.33l-35.91-19A3.4,3.4,0,0,1,35.47,273.55Z" style="fill:#FF725E"></path><path d="M69.21,276.18a7.78,7.78,0,0,1-1.33-.53l-3.53-1.6c-3-1.38-7.06-3.31-11.56-5.47L49.5,267l-1.56-.75a3.84,3.84,0,0,0-1.49-.46,3.59,3.59,0,0,0-2.67.87,7.5,7.5,0,0,0-1.45,2.14l-1.93,3.37a7.76,7.76,0,0,1-.77,1.2,7.5,7.5,0,0,1,.59-1.3L42,268.62l.6-1.14a4.19,4.19,0,0,1,.89-1.15,4.05,4.05,0,0,1,3-1,4.29,4.29,0,0,1,1.67.49l1.56.74L53,268.11c4.5,2.16,8.57,4.15,11.5,5.61L68,275.47A8.72,8.72,0,0,1,69.21,276.18Z" style="fill:#fff"></path><path d="M78.3,274.19c-.13-.07,5.08-10.37,11.64-23s12-22.83,12.1-22.76-5.08,10.36-11.64,23S78.42,274.25,78.3,274.19Z" style="fill:#fff"></path></g><g id="freepik--speech-bubbles--inject-181"><circle cx="148.27" cy="132.46" r="33.58" transform="translate(-1.45 263.29) rotate(-82.92)" style="fill:#fff"></circle><path d="M181.85,132.46s0-.18,0-.54,0-.91-.06-1.6l-.05-1.18c0-.43-.12-.9-.19-1.41s-.16-1.06-.24-1.64-.28-1.19-.42-1.84a31.72,31.72,0,0,0-3.68-9,33.33,33.33,0,0,0-8.53-9.6l-1.45-1.09c-.51-.34-1.05-.65-1.58-1s-1.06-.69-1.64-1l-1.75-.85-.89-.42-.94-.34-1.89-.7c-.65-.22-1.32-.36-2-.54a20.11,20.11,0,0,0-2-.47,31.52,31.52,0,0,0-4.27-.5c-.73,0-1.46-.1-2.2-.09l-2.23.11c-.38,0-.76,0-1.13.07l-1.13.17c-.75.12-1.51.21-2.27.37a35.37,35.37,0,0,0-4.5,1.31,34.28,34.28,0,0,0-4.41,1.93c-.71.38-1.4.83-2.11,1.25-.34.22-.71.41-1,.66l-1,.74a39,39,0,0,0-3.83,3.25l-1.72,1.89-.43.48-.39.51-.77,1-.78,1-.68,1.11-.68,1.11-.34.57-.29.59c-.38.79-.77,1.58-1.15,2.38s-.61,1.66-.92,2.5a33.52,33.52,0,0,0,0,21.32c.31.84.61,1.67.92,2.5l1.14,2.39.29.59.34.56.68,1.12.69,1.11.77,1,.78,1,.39.52.43.47,1.72,1.89a37.64,37.64,0,0,0,3.83,3.25l1,.75c.33.25.7.44,1,.66.71.41,1.39.86,2.11,1.25a34.28,34.28,0,0,0,4.41,1.93,35.37,35.37,0,0,0,4.5,1.31c.76.16,1.52.24,2.27.37l1.13.17c.38.05.75,0,1.13.07l2.23.11c.74,0,1.48-.06,2.2-.09a31.52,31.52,0,0,0,4.27-.5,19.5,19.5,0,0,0,2-.47c.67-.19,1.34-.33,2-.54l1.89-.7.94-.34.89-.43,1.75-.84c.58-.27,1.1-.65,1.64-1s1.07-.64,1.58-1l1.46-1.09a33.43,33.43,0,0,0,8.52-9.6,31.84,31.84,0,0,0,3.68-9,18.36,18.36,0,0,0,.42-1.84c.08-.59.17-1.14.24-1.65s.15-1,.19-1.41,0-.82.05-1.17c0-.7.05-1.23.06-1.6s0-.55,0-.55,0,.19,0,.55-.05.9-.1,1.59c0,.35,0,.74-.07,1.18s-.13.89-.21,1.4-.17,1-.26,1.63a15.58,15.58,0,0,1-.44,1.83,32,32,0,0,1-3.71,8.91A33.24,33.24,0,0,1,168.5,159l-1.44,1.08c-.51.33-1.05.64-1.57,1s-1.06.68-1.64.95l-1.73.83-.88.42-.93.34-1.88.68c-.64.21-1.31.35-2,.53a19.69,19.69,0,0,1-2,.46,32.38,32.38,0,0,1-4.23.49c-.72,0-1.44.09-2.18.08l-2.21-.12c-.37,0-.74,0-1.11-.07l-1.12-.17c-.74-.12-1.5-.21-2.24-.36a34.35,34.35,0,0,1-4.46-1.31,35.46,35.46,0,0,1-4.35-1.91c-.71-.39-1.38-.83-2.08-1.25-.34-.22-.71-.4-1-.65l-1-.74a36.9,36.9,0,0,1-3.79-3.22L123,154.2l-.43-.47-.38-.51-.77-1-.77-1-.67-1.1-.67-1.11-.34-.55-.28-.59-1.14-2.35-.9-2.48a33.09,33.09,0,0,1,0-21.06l.91-2.48c.38-.78.75-1.57,1.13-2.35l.29-.58.33-.56.67-1.1.68-1.1.76-1,.77-1,.38-.51.43-.47,1.7-1.87a38.1,38.1,0,0,1,3.78-3.22l1-.73c.32-.25.69-.44,1-.66.7-.41,1.37-.86,2.08-1.24a35.46,35.46,0,0,1,4.35-1.91,34.35,34.35,0,0,1,4.46-1.31c.74-.15,1.5-.24,2.24-.36l1.12-.17c.37-.05.74-.05,1.11-.08l2.21-.11c.74,0,1.46.06,2.18.08a32.58,32.58,0,0,1,4.23.49,17.37,17.37,0,0,1,2,.46c.66.18,1.33.32,2,.53l1.88.68.92.34.89.42,1.73.83c.58.26,1.09.64,1.63.94s1.07.63,1.58,1l1.44,1.07a33.52,33.52,0,0,1,8.51,9.49,32.12,32.12,0,0,1,3.71,8.91,16.59,16.59,0,0,1,.44,1.83c.09.59.18,1.13.26,1.64s.17,1,.21,1.4.05.82.07,1.18c.05.69.08,1.22.1,1.59S181.85,132.46,181.85,132.46Z" style="fill:#263238"></path><path d="M194.62,153.57a5.46,5.46,0,1,1-5.46-5.46A5.45,5.45,0,0,1,194.62,153.57Z" style="fill:#fff"></path><path d="M194.62,153.57s0-.12,0-.35a4.26,4.26,0,0,0-.11-1,5.4,5.4,0,0,0-2-3.1A5.55,5.55,0,0,0,190.2,148a5.72,5.72,0,0,0-3,.23,5.59,5.59,0,0,0-2.64,2,5.64,5.64,0,0,0,0,6.69,5.59,5.59,0,0,0,2.64,2,5.52,5.52,0,0,0,3,.23,5.56,5.56,0,0,0,4.33-4.18,4.26,4.26,0,0,0,.11-1c0-.23,0-.35,0-.35s0,.49-.25,1.32a5.38,5.38,0,0,1-4.23,3.88,5.36,5.36,0,0,1-2.78-.25,5.18,5.18,0,0,1-2.44-1.84,5.25,5.25,0,0,1,0-6.22,5.25,5.25,0,0,1,2.44-1.84,5.36,5.36,0,0,1,2.78-.25,5.38,5.38,0,0,1,4.23,3.89C194.6,153.08,194.58,153.57,194.62,153.57Z" style="fill:#263238"></path><path d="M137.23,135.11v4.57h-3.6v-4.62L128.78,127h3.79l3,5.06,3-5.06h3.49Z" style="fill:#263238"></path><path d="M153.16,136.9v2.78H143V127h10v2.79h-6.41v2.14h5.65v2.69h-5.65v2.33Z" style="fill:#263238"></path><path d="M154.26,138.53l1.18-2.65a8.09,8.09,0,0,0,4.2,1.25c1.49,0,2.07-.42,2.07-1,0-2-7.23-.55-7.23-5.27,0-2.28,1.86-4.13,5.64-4.13a9.47,9.47,0,0,1,4.61,1.11l-1.11,2.67a7.52,7.52,0,0,0-3.52-1c-1.51,0-2.06.51-2.06,1.14,0,2,7.22.49,7.22,5.18,0,2.22-1.86,4.11-5.64,4.11A10,10,0,0,1,154.26,138.53Z" style="fill:#263238"></path><circle cx="363.4" cy="153.59" r="36.06" transform="translate(-16.47 47.06) rotate(-7.25)" style="fill:#fff"></circle><path d="M327.34,153.59s0-.2,0-.59,0-1,.07-1.71l.05-1.27c0-.46.13-1,.21-1.51s.16-1.14.26-1.77a16.76,16.76,0,0,1,.45-2,34.25,34.25,0,0,1,3.95-9.65,36,36,0,0,1,9.15-10.31l1.56-1.17c.55-.36,1.13-.69,1.7-1s1.14-.74,1.77-1l1.87-.9,1-.46,1-.37,2-.75c.69-.23,1.42-.38,2.13-.58a20.42,20.42,0,0,1,2.19-.5,34.51,34.51,0,0,1,4.58-.54c.79,0,1.57-.11,2.37-.1l2.4.12c.4,0,.8,0,1.21.08l1.21.18c.8.13,1.62.23,2.44.39a40.77,40.77,0,0,1,4.83,1.41,36.54,36.54,0,0,1,4.73,2.08c.77.41,1.51.89,2.26,1.34.38.24.77.44,1.13.71l1.06.8a39.83,39.83,0,0,1,4.12,3.49l1.85,2,.46.51.42.55.83,1.11.83,1.11.74,1.2.73,1.2.36.6.31.63c.41.85.82,1.71,1.24,2.56s.65,1.79,1,2.69a35.78,35.78,0,0,1,0,22.89c-.33.9-.65,1.8-1,2.69l-1.23,2.56-.31.63-.37.6-.73,1.21-.73,1.19-.84,1.11-.83,1.12-.42.55-.46.51-1.85,2a42.15,42.15,0,0,1-4.11,3.49l-1.07.8c-.36.26-.75.47-1.12.7-.76.45-1.5.94-2.26,1.35a38.68,38.68,0,0,1-4.74,2.07,37,37,0,0,1-4.84,1.41c-.81.17-1.63.26-2.44.39l-1.2.19c-.41.05-.81.05-1.22.07l-2.39.12c-.8,0-1.59-.07-2.37-.09a34.32,34.32,0,0,1-4.58-.55,17.83,17.83,0,0,1-2.19-.5c-.72-.2-1.44-.35-2.13-.58l-2-.75-1-.36-1-.46-1.88-.91c-.62-.29-1.18-.69-1.76-1s-1.15-.68-1.7-1.05l-1.56-1.17a35.9,35.9,0,0,1-9.16-10.31,34.26,34.26,0,0,1-3.94-9.65,16.32,16.32,0,0,1-.45-2c-.1-.63-.18-1.22-.26-1.76s-.17-1-.21-1.52,0-.88-.05-1.26c0-.75-.05-1.32-.07-1.72s0-.58,0-.58,0,.2.05.58.07,1,.11,1.71c0,.38.05.8.08,1.26s.14,1,.22,1.51.18,1.13.28,1.75.31,1.28.47,2a34.66,34.66,0,0,0,4,9.57,35.9,35.9,0,0,0,9.14,10.19l1.55,1.15c.54.36,1.12.69,1.69,1a19.94,19.94,0,0,0,1.75,1l1.86.89,1,.45,1,.37,2,.73c.69.23,1.41.38,2.12.57a19,19,0,0,0,2.17.49,33.57,33.57,0,0,0,4.53.53c.78,0,1.56.1,2.34.09l2.38-.13c.39,0,.8,0,1.19-.07l1.2-.19c.8-.13,1.61-.22,2.41-.39a37.85,37.85,0,0,0,4.79-1.4,37.05,37.05,0,0,0,4.67-2.06c.76-.41,1.49-.89,2.24-1.33.36-.24.76-.44,1.1-.7l1.06-.79a41.38,41.38,0,0,0,4.07-3.46l1.82-2,.46-.5.41-.55.82-1.1.83-1.1.72-1.18.72-1.19.36-.59.31-.63c.4-.84.81-1.68,1.21-2.53s.65-1.77,1-2.65a38.6,38.6,0,0,0,1.84-11.32,38.21,38.21,0,0,0-1.85-11.31l-1-2.65c-.41-.85-.81-1.69-1.22-2.53l-.3-.63-.36-.59-.73-1.19-.72-1.18-.82-1.1-.82-1.1-.41-.54-.46-.51-1.82-2a41.27,41.27,0,0,0-4.07-3.45l-1.06-.79c-.35-.27-.74-.47-1.1-.7-.75-.45-1.48-.92-2.24-1.34a39.05,39.05,0,0,0-9.46-3.45c-.8-.17-1.61-.26-2.41-.4l-1.19-.18c-.4-.05-.8-.05-1.2-.08l-2.38-.12c-.78,0-1.56.06-2.33.09a32,32,0,0,0-4.54.53,15.86,15.86,0,0,0-2.17.49c-.71.19-1.43.34-2.12.56l-2,.74-1,.36-1,.45-1.86.89c-.62.29-1.17.69-1.75,1s-1.14.67-1.69,1l-1.55,1.16a35.94,35.94,0,0,0-9.14,10.19,34.74,34.74,0,0,0-4,9.56c-.16.7-.39,1.34-.47,2s-.19,1.21-.28,1.76-.17,1-.22,1.5-.06.89-.08,1.26l-.11,1.71C327.37,153.39,327.34,153.59,327.34,153.59Z" style="fill:#263238"></path><path d="M313.63,176.25a5.87,5.87,0,1,0,5.86-5.86A5.87,5.87,0,0,0,313.63,176.25Z" style="fill:#fff"></path><path d="M313.63,176.25a1.53,1.53,0,0,1,0-.37,4.48,4.48,0,0,1,.12-1.08,5.82,5.82,0,0,1,2.12-3.33,5.9,5.9,0,0,1,2.53-1.15A6.05,6.05,0,1,1,315.85,181a5.79,5.79,0,0,1-2.12-3.33,4.41,4.41,0,0,1-.12-1.07,1.59,1.59,0,0,1,0-.38c.05,0,0,.52.27,1.41a5.83,5.83,0,0,0,2.14,3.13,5.71,5.71,0,0,0,5.38.78,5.56,5.56,0,0,0,2.62-2,5.62,5.62,0,0,0,0-6.68,5.56,5.56,0,0,0-2.62-2,5.79,5.79,0,0,0-3-.26,5.7,5.7,0,0,0-2.4,1,5.83,5.83,0,0,0-2.14,3.13C313.66,175.73,313.68,176.25,313.63,176.25Z" style="fill:#263238"></path><path d="M361.73,145.46V160.7h-3.55l-6.73-8.12v8.12h-4.22V145.46h3.55l6.73,8.12v-8.12Z" style="fill:#263238"></path><path d="M364,153.08c0-4.57,3.59-7.93,8.47-7.93s8.47,3.36,8.47,7.93-3.59,7.93-8.47,7.93S364,157.65,364,153.08Zm12.59,0a4.12,4.12,0,1,0-4.12,4.36A4.08,4.08,0,0,0,376.59,153.08Z" style="fill:#263238"></path><ellipse cx="299.11" cy="73.68" rx="31.12" ry="31.18" transform="translate(-6.2 114.67) rotate(-21.48)" style="fill:#fff"></ellipse><path d="M286.7,102.26l.47.19,1.38.54,1,.4c.38.12.81.22,1.27.35l1.49.4a16.13,16.13,0,0,0,1.73.33,29.55,29.55,0,0,0,9,.19A31.06,31.06,0,0,0,314.38,101l1.47-.83c.47-.31.94-.66,1.41-1s1-.65,1.42-1l1.37-1.18,1.26-1.19.07-.08c.43-.44.86-.9,1.29-1.35s.79-1,1.19-1.49A16.31,16.31,0,0,0,325,91.23a29.73,29.73,0,0,0,2-3.44c.29-.61.63-1.21.89-1.84l1-2.66L329,83l.27-1c.17-.69.38-1.37.53-2.07a34,34,0,0,0,.55-4.32,33.22,33.22,0,0,0,0-4.46c-.06-.75-.19-1.5-.29-2.25-.06-.38-.08-.76-.17-1.14l-.27-1.12a26,26,0,0,0-1-3.58c-.23-.58-.47-1.16-.7-1.75L327,59.47l-.3-.52-.59-1-.6-1-.69-1-.7-1-.35-.5-.4-.47-3.16-3.34-.23-.22a31.06,31.06,0,0,0-18.14-7.88h-.29l-4.63,0-.61,0-.61.09-1.2.16-1.2.17-1.17.28-1.16.28-.58.14-1.91.65-1.76.69a28,28,0,0,0-3.33,1.67l-1,.58c-.33.19-.63.43-.94.64-.62.45-1.25.87-1.85,1.33a34.16,34.16,0,0,0-6.05,6.39c-.41.58-.77,1.2-1.15,1.8l-.56.89a2,2,0,0,0-.14.25c-.42.86-.84,1.7-1.26,2.54-.28.63-.49,1.28-.73,1.91a28.74,28.74,0,0,0-1.15,3.82,15.66,15.66,0,0,0-.36,1.91c-.09.63-.22,1.26-.27,1.89s-.08,1.26-.11,1.88l0,1.82h0c0,.61.05,1.21.07,1.81s.15,1.17.21,1.75.15,1.14.25,1.7l.39,1.64a31.21,31.21,0,0,0,5,10.81,29.73,29.73,0,0,0,6.29,6.44,14.91,14.91,0,0,0,1.41,1l1.31.82c.41.24.78.49,1.13.68l1,.48,1.34.64.46.21-.44-.24-1.32-.68-1-.49c-.35-.2-.72-.45-1.12-.7l-1.3-.82a16.92,16.92,0,0,1-1.39-1A29.72,29.72,0,0,1,274,91.82,30.85,30.85,0,0,1,269,81.08c-.13-.54-.26-1.08-.38-1.63s-.16-1.12-.24-1.69a16.53,16.53,0,0,1-.2-1.74c0-.58-.05-1.18-.07-1.78s0-1.26,0-1.73v-.09l.12-1.85c.05-.63.18-1.24.27-1.87a17.48,17.48,0,0,1,.36-1.89A29.26,29.26,0,0,1,270.05,63c.24-.62.45-1.27.73-1.88.41-.84.83-1.68,1.25-2.53,0-.08.09-.16.14-.24.18-.29.37-.58.55-.88.38-.59.74-1.2,1.15-1.78a32.71,32.71,0,0,1,2.75-3.3,31.88,31.88,0,0,1,3.24-3c.59-.46,1.22-.87,1.83-1.31.31-.21.6-.46.93-.64l1-.57a35.28,35.28,0,0,1,4.14-2l2.22-.75.56-.19.57-.14,1.15-.27,1.16-.28,1.19-.16,1.18-.17.6-.08.6,0,4.6,0h.27a30.65,30.65,0,0,1,17.92,7.79l.22.21,3.13,3.31.4.46.34.49.7,1,.68,1,.59,1,.59,1,.29.51.24.54c.33.71.65,1.42,1,2.13a35.43,35.43,0,0,1,1.34,4.41l.26,1.11c.09.37.11.75.17,1.12.1.75.23,1.49.29,2.23a30.94,30.94,0,0,1,0,4.41,33.21,33.21,0,0,1-.53,4.27c-.15.7-.35,1.37-.52,2l-.27,1a2,2,0,0,1-.08.26l-1,2.64c-.26.63-.59,1.22-.87,1.82a30.19,30.19,0,0,1-2,3.42,15.84,15.84,0,0,1-1.14,1.55c-.39.5-.76,1-1.17,1.48l-1.28,1.35-.63.66-.06.06-2,1.71c-.44.39-.95.69-1.41,1s-.93.68-1.4,1l-1.45.83A30.75,30.75,0,0,1,303,104.45a29.45,29.45,0,0,1-8.95-.13,15.69,15.69,0,0,1-1.72-.3l-1.49-.39c-.46-.12-.89-.21-1.27-.33l-1-.38-1.4-.5Z" style="fill:#263238"></path><path d="M274.27,115.8a5.07,5.07,0,1,1,5-2A5.08,5.08,0,0,1,274.27,115.8Z" style="fill:#fff"></path><path d="M273.15,115.45s.1.07.29.15a3.77,3.77,0,0,0,.9.27,5,5,0,0,0,3.37-.53,5.18,5.18,0,0,0,2.68-4.21,5.1,5.1,0,0,0-.69-3A5.19,5.19,0,0,0,274,105.7a5.2,5.2,0,0,0-3.93,4,5.21,5.21,0,0,0,.05,2.4,5,5,0,0,0,1.91,2.82,3.92,3.92,0,0,0,.81.47c.19.09.3.13.3.11s-.4-.2-1-.69a5,5,0,0,1-1.74-2.78,4.79,4.79,0,0,1,0-2.26,4.85,4.85,0,0,1,1.23-2.27,4.8,4.8,0,0,1,2.47-1.4,4.93,4.93,0,0,1,3,.28,4.87,4.87,0,0,1,2.27,2,4.78,4.78,0,0,1,.67,2.76,5,5,0,0,1-2.47,4,5.1,5.1,0,0,1-3.22.62C273.58,115.61,273.17,115.42,273.15,115.45Z" style="fill:#263238"></path><path d="M290.29,68.46H295a4,4,0,0,1,4.11-4,3.81,3.81,0,0,1,3.7,2.43,4.23,4.23,0,0,1-.34,3.82c-.8,1.32-2.55,2.52-5.73,2V83.26h4.66V77a9.1,9.1,0,0,0,6.54-8.89c0-6.89-6.18-8.49-8.83-8.49C297.09,59.66,290.2,60.14,290.29,68.46Z" style="fill:#263238"></path><rect x="296.73" y="85.45" width="4.73" height="4.42" style="fill:#263238"></rect></g><g id="freepik--Character--inject-181"><path d="M127.1,349.24s-8.54-8-11.83-10.15-10.65-5.06-13.4-5.33-15.62,3.46-15.62,3.46-19-1.68-22.19.54-2.93,4.52-1.59,6.21,6.47,1.15,12.15,1.24,7.19.62,7.19.62l-8.25,8.79L95,360.57l13-.49L112.7,366Z" style="fill:#ffbf9d"></path><path d="M62,329.39l.52,18.92.91,2.35,9.34,11.39,22.78-1.51-18.15-7.07-6.45-4.9-2.5-8.09S69.21,328,62,329.39Z" style="fill:#ffbf9d"></path><path d="M63.58,351.1H58s-7.24-11.91-13.86-7.86l1.52,2.35s-3-1.35-4.88,1.16l18.26,16h.84l19.45-1.25Z" style="fill:#ffbf9d"></path><path d="M66.89,354.72a13.77,13.77,0,0,1-1.57.06,10.53,10.53,0,0,0-3.85.77l-.18.09-.12-.17c-.57-.8-1.26-1.65-2-2.54-1.47-1.83-2.81-3.48-3.93-4.86A15.58,15.58,0,0,1,53.69,346a11.73,11.73,0,0,1,1.85,1.84c1.07,1.19,2.52,2.86,4.06,4.77.72.9,1.4,1.75,2,2.6l-.31-.08a9.22,9.22,0,0,1,4.06-.63A4,4,0,0,1,66.89,354.72Z" style="fill:#ff9a6c"></path><path d="M106.35,343.71a47.72,47.72,0,0,0-6.42,2.72,46.47,46.47,0,0,0-5.62,4.13A6.67,6.67,0,0,1,95.66,349a19.91,19.91,0,0,1,4-3,20.24,20.24,0,0,1,4.63-1.92A6.42,6.42,0,0,1,106.35,343.71Z" style="fill:#ff9a6c"></path><path d="M88.15,338.81A27.07,27.07,0,0,1,85.54,342a26.27,26.27,0,0,1-2.7,3.13,12.12,12.12,0,0,1,2.3-3.46A12.16,12.16,0,0,1,88.15,338.81Z" style="fill:#ff9a6c"></path><path d="M69.13,357.36a3.33,3.33,0,0,1-.43-.43l-1.18-1.31-1.83-2.1-1.14-1.31a13.63,13.63,0,0,1-1.24-1.54A8,8,0,0,1,62,346.34c0-1.61-.07-3.33-.1-5.14-.06-3.63-.13-7.62-.2-11.81v-.23l.21,0,.61-.08a4.42,4.42,0,0,1,3.68,1.3A8.21,8.21,0,0,1,68,333.68a21.7,21.7,0,0,1,.68,6.82v-.08c.93,3.06,1.75,5.8,2.45,8.1l-.07-.09,4.69,3.67,1.25,1a2.5,2.5,0,0,1,.41.37s-.17-.08-.47-.29l-1.3-.93-4.79-3.54,0,0,0-.06c-.72-2.29-1.58-5-2.55-8.07v-.08a21.51,21.51,0,0,0-.71-6.65,7.59,7.59,0,0,0-1.64-3.11,3.91,3.91,0,0,0-3.27-1.14l-.55.07.21-.26c.06,4.19.11,8.18.15,11.81s-.41,7,1.23,9.29A14,14,0,0,0,64.8,352l1.11,1.34c.68.82,1.27,1.54,1.76,2.15l1.1,1.37A2.52,2.52,0,0,1,69.13,357.36Z" style="fill:#ff9a6c"></path><path d="M59.92,362.76a1.48,1.48,0,0,1-1-.27,10.59,10.59,0,0,1-2.14-1.71,58.57,58.57,0,0,1-5.72-6.92C49,351,47.27,348.38,46,346.45c-.61-1-1.09-1.76-1.41-2.32a3.29,3.29,0,0,1-.45-.89,4.11,4.11,0,0,1,.62.78l1.55,2.22c1.31,1.89,3.1,4.49,5.16,7.31a77.12,77.12,0,0,0,5.56,7,12.32,12.32,0,0,0,2,1.79A5.53,5.53,0,0,0,59.92,362.76Z" style="fill:#ff9a6c"></path><path d="M93.15,350.55l-10.05-.68-3-8.23-.55-5.54a5.27,5.27,0,0,0-5.25-4.8h-.1l.56,13.57,2.07,8.43L85,358.12H95Z" style="fill:#ffbf9d"></path><path d="M93.15,350.55l-10.05-.68-3-8.23-.55-5.54a5.27,5.27,0,0,0-5.25-4.8h-.1l.56,13.57,2.07,8.43L85,358.12" style="fill:#ffbf9d"></path><path d="M85,358.12a3.63,3.63,0,0,1-.59-.29l-1.64-.91-6-3.46-.07,0,0-.07c-.61-2.42-1.32-5.28-2.11-8.42v-.05c-.18-4.08-.38-8.69-.59-13.57v-.26h.26c.09,0,.2,0,.3,0a5.51,5.51,0,0,1,5.17,4.25,11.07,11.07,0,0,1,.23,1.65l.15,1.6c.11,1,.2,2.08.3,3.07v-.06c1.1,3.07,2.09,5.85,3,8.26l-.17-.13,7.35.58,2,.19a3.57,3.57,0,0,1,.69.1,3.4,3.4,0,0,1-.7,0l-2-.09-7.35-.41H83l0-.11c-.89-2.4-1.91-5.17-3-8.22v-.06c-.1-1-.21-2-.32-3.07-.05-.53-.11-1.06-.16-1.6a11.35,11.35,0,0,0-.22-1.58,5,5,0,0,0-4.69-3.85H74.2l.25-.27c.19,4.87.38,9.49.54,13.57v0c.76,3.15,1.44,6,2,8.44l-.09-.12,5.94,3.6,1.6,1A2.42,2.42,0,0,1,85,358.12Z" style="fill:#ff9a6c"></path><path d="M308.42,190.42c-8.61-32.83-16.56-71-64.57-67.6,0,0-29.58,5.69-43.62,27.52-8.27,12.84-15.43,68.2-16.85,111.92h0v0c-.06,1.78.68,14.19.63,15.93l127.06,10.58H334s-1.43-23.19-8.33-45.69C318.92,221.21,311.47,202,308.42,190.42Z" style="fill:#263238"></path><path d="M237.47,135.33l3-2.87,32.45,13.08a9.07,9.07,0,0,1,8.56,8.77l-.29,105.74c0,7.17-1.39,13.38-5.72,19.09l-4.56,6c-10.39,13.72-31.77,12.59-40-2.52a11.64,11.64,0,0,1-1.14-2.74,21.71,21.71,0,0,1-.49-2.36c-1-8.51-1-15.89-1-15.89-.58-9.34-.77-13.17-.77-13.08s-19.88-2.29-25.25-27.8c-2.67-12.69-2.17-30.15-1.42-47.33C201.86,149.67,218.36,135.3,237.47,135.33Z" style="fill:#ffbf9d"></path><path d="M245.82,190.41a3.3,3.3,0,0,0,3.35,3.16,3.15,3.15,0,0,0,3.25-3.14,3.31,3.31,0,0,0-3.34-3.17A3.16,3.16,0,0,0,245.82,190.41Z" style="fill:#263238"></path><path d="M211.94,191.29a3.29,3.29,0,0,0,3.34,3.17,3.17,3.17,0,0,0,3.26-3.14,3.3,3.3,0,0,0-3.35-3.17A3.15,3.15,0,0,0,211.94,191.29Z" style="fill:#263238"></path><path d="M204.22,180.24c.43.41,2.83-1.57,6.38-1.73s6.24,1.47,6.61,1c.18-.2-.28-1-1.45-1.73a9.14,9.14,0,0,0-5.32-1.35,8.62,8.62,0,0,0-5.05,1.92C204.34,179.26,204,180.06,204.22,180.24Z" style="fill:#263238"></path><path d="M239.42,179c.47.36,2.67-1.85,6.18-2.38s6.36.83,6.67.34c.16-.22-.37-.93-1.62-1.57a9.13,9.13,0,0,0-5.42-.8,8.73,8.73,0,0,0-4.84,2.43C239.45,178,239.2,178.87,239.42,179Z" style="fill:#263238"></path><path d="M227.84,206.44c0-.2-2.22-.47-5.82-.75-.91-.05-1.78-.18-2-.79a4.57,4.57,0,0,1,.47-2.72c.74-2.24,1.52-4.58,2.33-7,3.23-10,5.52-18.22,5.12-18.35s-3.35,7.89-6.58,17.9c-.78,2.47-1.52,4.82-2.22,7.07-.29,1.05-.82,2.25-.29,3.58a2.26,2.26,0,0,0,1.55,1.25,6.36,6.36,0,0,0,1.55.14C225.6,206.74,227.83,206.65,227.84,206.44Z" style="fill:#263238"></path><path d="M227.49,248.57a65.45,65.45,0,0,0,34-10.92s-7.76,18.24-33.62,17.13Z" style="fill:#ff9a6c"></path><path d="M238.93,213.66a5.84,5.84,0,0,0-4.14-2c-2.23-.13-3.8.15-5,1.91a3.63,3.63,0,0,0-.25,2.86c.26.41.07.42.47.71a13.34,13.34,0,0,0,4.82,2.11c1.72.39,3.7,0,4.59-1.41A3.71,3.71,0,0,0,238.93,213.66Z" style="fill:#ff9a6c"></path><path d="M238.57,162.73c.46.9,3.51,0,7.27-.1s6.89.6,7.25-.33c.16-.44-.5-1.26-1.84-2a11.3,11.3,0,0,0-5.61-1.27,10.9,10.9,0,0,0-5.45,1.59C238.93,161.44,238.37,162.29,238.57,162.73Z" style="fill:#263238"></path><path d="M204.73,173.82c.66.77,3.07-.19,6-.37s5.45.26,6-.61c.23-.42-.2-1.21-1.33-1.92a8.38,8.38,0,0,0-4.95-1.07,8.27,8.27,0,0,0-4.71,1.86C204.73,172.59,204.43,173.44,204.73,173.82Z" style="fill:#263238"></path><path d="M280.83,199.44s-13.66,3.3-33-38.45c-6.6-14.21-19.41-28.53-19.41-28.53l12-1.73s35.85,10.1,36.45,10.55,9.05,18.54,9.05,18.54Z" style="fill:#263238"></path><path d="M276.35,197.77c-.09-1.92,1.9-6.55,3.77-6.94,5-1,14.14-1.09,14.87,11.74,1,17.53-16.81,14.91-16.87,14.41S276.67,204.38,276.35,197.77Z" style="fill:#ffbf9d"></path><path d="M283.1,210c.07-.06.31.2.84.41a3.06,3.06,0,0,0,2.29-.09c1.81-.78,3.2-3.81,3.11-7a10.29,10.29,0,0,0-1.1-4.33,3.53,3.53,0,0,0-2.43-2.21,1.56,1.56,0,0,0-1.76.94c-.21.5-.07.85-.17.88s-.39-.27-.29-1a1.94,1.94,0,0,1,.63-1.14,2.26,2.26,0,0,1,1.66-.54,4.29,4.29,0,0,1,3.35,2.53,10.46,10.46,0,0,1,1.33,4.83c.09,3.54-1.53,6.95-4,7.82a3.29,3.29,0,0,1-2.82-.3C283.15,210.46,283,210.07,283.1,210Z" style="fill:#ff9a6c"></path><path d="M241.19,214.37c-.05.45-3.05.38-6.6,1.07s-6.33,1.8-6.55,1.41,2.41-2.23,6.26-2.94S241.27,214,241.19,214.37Z" style="fill:#263238"></path><path d="M378.19,350.22s14.68-12.57,18.94-12.91,15.44,1.75,15.44,1.75,7.07.06,10.58-.38a26.84,26.84,0,0,1,11,.54c1.06.32,2.39,2.95-.73,4.75-1.32.76-14.16,1.63-14.16,1.63l32.12,9.17-4.17,3.44a3.26,3.26,0,0,1-2,.75L399,360.6l-2.12,5.17Z" style="fill:#ffbf9d"></path><path d="M413.25,350.23h15s5.26-7,7.16-9.89c1.67-2.55,3.67-3.3,5.42-2.7a2,2,0,0,1,1.07.92h0a2.09,2.09,0,0,1,0,2l-6.6,12.31,3.46-1.16s6.92-6.78,8.27-8.35,6.27-8.17,10.63-3.36l-6,6.72,6-4.26s4.82-4.14,7.39.79l-18,15.16" style="fill:#ffbf9d"></path><path d="M397.63,344a2.74,2.74,0,0,1,.6-.21,9.27,9.27,0,0,1,1.79-.41,14.43,14.43,0,0,1,6.73.7,23.86,23.86,0,0,1,4.33,2c.74.44,1.49.92,2.25,1.45l1.14.81c.36.26.81.6,1.1.76,3.8.29,8.15.55,12.7.87l-.22.09c1.41-1.67,2.79-3.49,4.13-5.38.53-.74,1-1.49,1.51-2.23s.94-1.51,1.48-2.21a12.71,12.71,0,0,1,1.76-2,5.86,5.86,0,0,1,1.09-.75,2.38,2.38,0,0,1,1.38-.31h-.09a3.11,3.11,0,0,1,2.37.57,2.62,2.62,0,0,1,.79,2.24v0l0,.05c-2.86,5.12-5.35,9.58-7.27,13v0a4.55,4.55,0,0,1-2.65,2.8,7.86,7.86,0,0,1-2.82.6,16.17,16.17,0,0,1-1.79,0,2.5,2.5,0,0,1-.62-.06l.62,0c.4,0,1,0,1.78-.07a8.11,8.11,0,0,0,2.73-.65,4.34,4.34,0,0,0,2.43-2.65v0L442,339.88l0,.09a2.15,2.15,0,0,0-.63-1.81,2.7,2.7,0,0,0-2-.44h-.08a1.88,1.88,0,0,0-1,.27,4.41,4.41,0,0,0-1,.69,11.27,11.27,0,0,0-1.69,1.88c-1,1.4-1.9,3-3,4.44-1.35,1.91-2.74,3.72-4.17,5.41l-.08.1h-.13c-4.58-.34-8.84-.6-12.76-.95a7.43,7.43,0,0,1-1.26-.84l-1.13-.81c-.74-.53-1.48-1-2.2-1.45a23.45,23.45,0,0,0-4.24-2,14.69,14.69,0,0,0-6.6-.84,12,12,0,0,0-1.78.32A4.51,4.51,0,0,1,397.63,344Z" style="fill:#ff9a6c"></path><path d="M457.69,340a3.53,3.53,0,0,1-.58.82c-.41.51-1,1.24-1.75,2.12-1.48,1.78-3.56,4.21-5.89,6.87s-4.33,5.18-6.06,6.76a14.58,14.58,0,0,1-2.16,1.72,2.44,2.44,0,0,1-.92.42,7.36,7.36,0,0,1,.81-.59,19.17,19.17,0,0,0,2-1.82c1.63-1.62,3.53-4.19,5.91-6.82s4.46-5.06,6-6.78l1.86-2A4,4,0,0,1,457.69,340Z" style="fill:#ff9a6c"></path><path d="M449.46,340.7a13.45,13.45,0,0,1-1.82,2.14c-1.17,1.28-2.82,3-4.66,4.92-1.51,1.56-2.92,3-4,4.09l0,0h0a15.9,15.9,0,0,1-3.71,1,5.81,5.81,0,0,1,1-.39l2.62-1-.08.05c1.08-1.16,2.46-2.61,4-4.16,1.84-1.9,3.53-3.6,4.77-4.81A15.71,15.71,0,0,1,449.46,340.7Z" style="fill:#ff9a6c"></path><path d="M328.42,275.6s21.56,5.56,23.67,34.86c1.21,16.7-7.68,70.33-7.68,70.33l31.84-32.7,28.38,19.74S366,415,357.12,422.13,334,440.64,329.4,439.71s-4.62-22.21-4.62-22.21V300Z" style="fill:#FF725E"></path><path d="M173.42,279.19S154.24,285.5,155,323s.17,50.09.17,50.09l-28.75-30.43L102.56,369s26.72,39.7,45.41,59c17.62,18.17,33.28,2.39,38.37-10.39,4.12-10.35,7.44-49.71,7.44-49.71Z" style="fill:#FF725E"></path><g style="opacity:0.30000000000000004"><path d="M330.09,343.1c1.74-11,2.2-22.91-2.81-33-12.29,30.38-11.74,65.27-7.34,97.46l9.74,27.85c6.14-18.66.31-38.54.44-58C330.2,366.32,328.36,354.07,330.09,343.1Z"></path></g><path d="M169.43,303.05s12.82,86.24,15.3,93.79,2.48,29.81,2.48,29.81-13.45,25.06-14.28,42.47l162.07.34-10.53-71.57a120.6,120.6,0,0,1-.24-13.58c.68-12.61,1.65-39.64,5.27-56.26,4.2-19.32-1.46-52.38-1.46-52.38l-48.41-11.93c-11.46,16.47-40,16.69-51.32,0l-54.64,15.45Z" style="fill:#FF725E"></path><path d="M327.65,394.47a2.81,2.81,0,0,1,.48-.77c.34-.47.85-1.15,1.49-2a44.07,44.07,0,0,1,5.56-6,29.47,29.47,0,0,1,6.86-4.41c1-.42,1.74-.74,2.29-.92a3.51,3.51,0,0,1,.88-.25c.11.21-4.91,1.82-9.69,6a59.34,59.34,0,0,0-5.62,5.8A23.82,23.82,0,0,1,327.65,394.47Z" style="fill:#263238"></path><path d="M177.57,392.64c-.1,0-.47-1.75-1.7-4.38a26,26,0,0,0-16.7-14.17c-2.8-.78-4.62-.86-4.6-1a5.13,5.13,0,0,1,1.27,0,21.23,21.23,0,0,1,3.42.58,25,25,0,0,1,10.17,5.19,25.32,25.32,0,0,1,6.78,9.18,22.26,22.26,0,0,1,1.13,3.28A5.06,5.06,0,0,1,177.57,392.64Z" style="fill:#263238"></path><path d="M178.61,345.91a2.53,2.53,0,0,1-.74-.4c-.45-.28-1.09-.72-1.86-1.3a45.21,45.21,0,0,1-5.57-5,65.14,65.14,0,0,1-4.79-5.73,15.69,15.69,0,0,1-1.74-2.57,21.65,21.65,0,0,1,2,2.34c1.22,1.47,2.9,3.49,4.89,5.6a61.61,61.61,0,0,0,5.42,5.07A27.92,27.92,0,0,1,178.61,345.91Z" style="fill:#263238"></path><path d="M291.74,392.59s0,.07-.13.2l-.42.55c-.4.47-.93,1.21-1.71,2.07a68.94,68.94,0,0,1-7,6.93A94.22,94.22,0,0,1,270.63,411a163.36,163.36,0,0,1-15.75,8.53c-5.74,2.73-11.28,5.16-16.3,7.42s-9.51,4.33-13.22,6.2-6.67,3.47-8.69,4.63c-1,.56-1.78,1-2.31,1.34l-.61.34c-.14.07-.21.11-.22.1a.71.71,0,0,1,.19-.14l.58-.39c.52-.33,1.27-.83,2.27-1.43,2-1.21,4.92-2.88,8.62-4.78s8.19-4,13.2-6.31,10.54-4.72,16.26-7.45a171.2,171.2,0,0,0,15.73-8.47,97.2,97.2,0,0,0,11.84-8.49,74.45,74.45,0,0,0,7.11-6.79c.8-.83,1.36-1.55,1.77-2l.47-.51Z" style="fill:#263238"></path><path d="M173.3,467.77v-.21c0-.17,0-.37,0-.63,0-.58.09-1.39.15-2.44a61.66,61.66,0,0,1,1.83-9,149.25,149.25,0,0,1,12.48-29.75l0,.13c-.65-9.38-1.62-19.86-2.74-30.88-2.14-20.82-4.38-39.62-6-53.24-.82-6.78-1.49-12.28-2-16.11-.22-1.88-.39-3.36-.52-4.39l-.12-1.14a1.92,1.92,0,0,1,0-.39,1.74,1.74,0,0,1,.08.38q.06.42.18,1.14c.14,1,.35,2.49.61,4.37.51,3.83,1.23,9.32,2.13,16.1,1.73,13.6,4,32.4,6.17,53.22,1.12,11,2.08,21.52,2.69,30.91v.07l0,.06a153.83,153.83,0,0,0-12.61,29.6,66.13,66.13,0,0,0-2,8.95c-.09,1-.17,1.85-.22,2.42,0,.26,0,.47-.07.63A.71.71,0,0,1,173.3,467.77Z" style="fill:#263238"></path><path d="M331.49,305.06a2.06,2.06,0,0,1,0,.43c0,.31,0,.72,0,1.26,0,1.1,0,2.73-.09,4.82-.11,4.19-.54,10.24-1.29,17.7s-1.81,16.31-2.91,26.15-2.18,20.67-2.52,32.09a176.78,176.78,0,0,0,2.21,32.05c1.44,9.8,3.14,18.55,4.45,25.93s2.33,13.35,2.89,17.5c.3,2.08.47,3.7.59,4.79,0,.53.09,1,.12,1.25a2.31,2.31,0,0,1,0,.43,2,2,0,0,1-.08-.42c0-.31-.1-.72-.18-1.24-.15-1.1-.35-2.71-.69-4.78-.61-4.14-1.65-10.11-3-17.47s-3.1-16.11-4.57-25.92a175.5,175.5,0,0,1-2.26-32.14c.35-11.44,1.46-22.28,2.57-32.12s2.25-18.69,3-26.14,1.27-13.48,1.45-17.67c.13-2.09.14-3.71.18-4.81,0-.54,0-.95,0-1.26A2.43,2.43,0,0,1,331.49,305.06Z" style="fill:#263238"></path><g style="opacity:0.30000000000000004"><path d="M176.85,323.54a193.74,193.74,0,0,0,9.39,81.78Z"></path></g><g style="opacity:0.30000000000000004"><path d="M277.1,419.09c-12.28,11.28-24.6,20.92-39.71,26.29,11.39,1,22.88-3.39,31.68-10.68s15.07-15,19.1-25.66Z"></path></g><path d="M263.11,431.51c-.1-.1,7.54-7.11,17.06-15.65s17.32-15.37,17.41-15.26-7.54,7.11-17.06,15.65S263.21,431.62,263.11,431.51Z" style="fill:#263238"></path><path d="M290.27,219.88a6.27,6.27,0,1,1-6.26-6.27A6.26,6.26,0,0,1,290.27,219.88Z" style="fill:#455a64"></path><path d="M327.58,302.22q-2.77-23-5.54-46l-39.65-12c-.77,27.36-5.56,58.08-12.44,84.57a110.11,110.11,0,0,0,45.5,4.74q1-11.1,2-22.2,1.48,8.37,3,16.73c4.16-2.33,6.61-7,7.44-11.67S328.15,307,327.58,302.22Z" style="fill:#263238"></path><path d="M296.55,333.74s0-.19.12-.57.22-1,.39-1.69c.35-1.5.86-3.68,1.52-6.47,1.3-5.63,3.22-13.76,5.09-23.91a258.27,258.27,0,0,0,4.32-36,155.92,155.92,0,0,0-4-44,110.31,110.31,0,0,0-18.39-40c-1-1.35-2-2.72-3.12-4s-2.11-2.53-3.24-3.68l-1.65-1.75-1.68-1.67c-1.1-1.12-2.24-2.15-3.34-3.19-4.45-4.12-8.8-7.74-12.69-11.14s-7.36-6.53-10.24-9.46c-.73-.73-1.39-1.47-2-2.15s-1.28-1.37-1.84-2-1.13-1.3-1.65-1.91l-1.41-1.8c-.92-1.12-1.61-2.2-2.26-3.11s-1.13-1.71-1.52-2.37l-.88-1.48c-.2-.34-.29-.52-.29-.52s.12.16.34.49l.92,1.46c.4.64.9,1.44,1.56,2.33s1.36,2,2.29,3.08l1.42,1.78,1.66,1.89c.57.67,1.19,1.34,1.86,2s1.32,1.42,2.06,2.13c2.88,2.91,6.37,6,10.27,9.39s8.26,7,12.74,11.1c1.1,1,2.26,2.08,3.36,3.19l1.69,1.67,1.66,1.76c1.14,1.15,2.17,2.44,3.26,3.69s2.11,2.61,3.16,4A110.5,110.5,0,0,1,304.49,221a155.57,155.57,0,0,1,4,44.16,253.78,253.78,0,0,1-4.44,36c-1.92,10.16-3.89,18.28-5.25,23.9-.69,2.8-1.24,5-1.62,6.45-.19.72-.34,1.27-.44,1.67S296.55,333.74,296.55,333.74Z" style="fill:#455a64"></path></g></svg>
